<?xml version="1.0" encoding="UTF-8"?>
<svg id="Capa_2" data-name="Capa 2" xmlns="http://www.w3.org/2000/svg" viewBox="0 0 462.52 78.32">
  <g id="Capa_1-2" data-name="Capa 1">
    <path d="M212.68,38.98v24.62c-8.05-8.6-16.1-17.19-24.16-25.79-.42-.45-.68-.8-.47-1.51,.12-.4-.19-1.06-.51-1.43-.97-1.14-2.03-2.21-3.13-3.39,5.09-7.95,12.41-10.07,21.34-8.22,.02-.13,.03-.26,.05-.39-.22-.28-.38-.66-.66-.8-.74-.39-1.51-.75-2.3-.99-8.75-2.63-17.3-1.77-25.66,1.64-1.15,.46-2.25,1.2-3.18,2.03-2.73,2.44-5.37,4.98-8.04,7.49-1.05,.99-1.1,1.63-.08,2.67,.49,.5,.56,.95,.29,1.56-.61,1.39-1.42,2.56-2.98,2.99-.61,.17-1.08,.12-1.56-.4-1-1.1-1.79-1.08-2.9-.05-1.29,1.19-2.57,2.4-3.85,3.6-1.09,1.03-1.14,1.85-.15,2.91,2.57,2.76,5.15,5.52,7.73,8.26,.96,1.01,1.81,1.04,2.85,.08,1.32-1.21,2.63-2.44,3.92-3.68,1.07-1.02,1.13-1.86,.09-2.92-.53-.53-.56-1.01-.31-1.66,.63-1.61,1.83-2.53,3.48-2.87,.31-.06,.77,.14,1.01,.37,.77,.73,1.47,1.53,2.2,2.31,1.13,1.21,1.49,1.25,2.94,.27l28.26,30.17s-.01,.01-.02,.01c-.12,.07-.24,.15-.36,.22-.25,.15-.5,.29-.76,.42,0,0-.02,.01-.03,.02-.13,.06-.26,.12-.39,.19-.27,.12-.55,.24-.83,.35-.14,.06-.28,.11-.42,.15-.13,.05-.27,.09-.4,.13-.01,0-.02,0-.04,.01-.15,.05-.31,.09-.48,.13-.18,.05-.35,.08-.53,.12-.46,.1-.95,.18-1.43,.23-.2,.02-.4,.03-.61,.05-.22,.01-.44,.02-.67,.02-5.31,.03-10.62,0-15.94,0-8.67,0-17.32,.01-25.98,0-6.47-.01-11.65-4.32-12.78-10.62-.16-.91-.2-1.85-.2-2.78-.01-17.04-.01-34.08,0-51.12,0-6.93,4.2-12.05,10.84-13.21,.74-.13,1.51-.14,2.27-.14,13.8-.01,27.6,.07,41.41-.04,7.69-.06,13.34,6.2,13.18,13.21-.19,8.59-.05,17.18-.05,25.77Z"/>
    <path d="M122.81,48.53c9.1-.14,15.49-6.63,15.49-15.73V15.82c0-8.7-6.63-15.35-15.32-15.36-15.88,0-31.75,0-47.63,0-.37,0-.74,.03-1.11,.05V78.31h20.86v-28.93c4.58,7.38,10.14,13.45,16.89,18.41,6.75,4.96,14.18,8.48,22.41,10.53,0-6.81,0-13.47-.04-20.13,0-.32-.48-.77-.83-.92-4.7-1.93-8.97-4.54-12.8-7.88-.26-.23-.6-.37-.9-.56,.1-.1,.19-.21,.29-.31,.9,0,1.79,.01,2.69,0Zm-4.88-20.44c-.07,2.74-2.4,5.05-5.15,5.09-.96,0-18.92,.02-18.92,.02V16.06h18.57c3.15,0,5.5,2.35,5.51,5.5,0,2.17,.03,4.35-.02,6.53Z"/>
    <path d="M67.57,15.88c0-8.83-6.61-15.42-15.46-15.42-16.98,0-33.95,0-50.93,0H0V78.26H24.34v-29.73h1.3c9.14,0,18.29,.06,27.43-.06,7.7-.1,14.25-6.58,14.44-14.27,.15-6.1,.06-12.21,.05-18.32Zm-42.66,2.86h-2.75v14.85h-4.87v-14.82h-2.82v-3.71h10.44v3.69Zm13.41,14.87h-4.72v-7.78h-1.43v7.76h-4.8V15.08h4.73v6.49h1.42v-6.48h4.8v18.53Zm11.2-.02h-8.25V15.07h7.95v3.63h-3.09v3.54h2.87v3.51h-2.9v4.12h3.41v3.72Z"/>
    <path d="M365.5,30.47c-.29-2.09-1.43-3.55-3.56-3.69-2.79-.19-5.62-.29-8.4-.04-2.48,.23-3.46,1.36-3.75,3.88-.34,3.02-.42,6.08-.62,9.18,.2,3.04,.29,6.13,.64,9.19,.28,2.41,1.36,3.45,3.76,3.74,2,.24,4.03,.26,6.05,.24,4.33-.03,5.94-1.48,6.13-5.78,.19-4.32,.18-8.64,.18-12.96,0-1.26-.24-2.52-.42-3.77Zm0,0c-.29-2.09-1.43-3.55-3.56-3.69-2.79-.19-5.62-.29-8.4-.04-2.48,.23-3.46,1.36-3.75,3.88-.34,3.02-.42,6.08-.62,9.18,.2,3.04,.29,6.13,.64,9.19,.28,2.41,1.36,3.45,3.76,3.74,2,.24,4.03,.26,6.05,.24,4.33-.03,5.94-1.48,6.13-5.78,.19-4.32,.18-8.64,.18-12.96,0-1.26-.24-2.52-.42-3.77Zm0,0c-.29-2.09-1.43-3.55-3.56-3.69-2.79-.19-5.62-.29-8.4-.04-2.48,.23-3.46,1.36-3.75,3.88-.34,3.02-.42,6.08-.62,9.18,.2,3.04,.29,6.13,.64,9.19,.28,2.41,1.36,3.45,3.76,3.74,2,.24,4.03,.26,6.05,.24,4.33-.03,5.94-1.48,6.13-5.78,.19-4.32,.18-8.64,.18-12.96,0-1.26-.24-2.52-.42-3.77Zm0,0c-.29-2.09-1.43-3.55-3.56-3.69-2.79-.19-5.62-.29-8.4-.04-2.48,.23-3.46,1.36-3.75,3.88-.34,3.02-.42,6.08-.62,9.18,.2,3.04,.29,6.13,.64,9.19,.28,2.41,1.36,3.45,3.76,3.74,2,.24,4.03,.26,6.05,.24,4.33-.03,5.94-1.48,6.13-5.78,.19-4.32,.18-8.64,.18-12.96,0-1.26-.24-2.52-.42-3.77Zm0,0c-.29-2.09-1.43-3.55-3.56-3.69-2.79-.19-5.62-.29-8.4-.04-2.48,.23-3.46,1.36-3.75,3.88-.34,3.02-.42,6.08-.62,9.18,.2,3.04,.29,6.13,.64,9.19,.28,2.41,1.36,3.45,3.76,3.74,2,.24,4.03,.26,6.05,.24,4.33-.03,5.94-1.48,6.13-5.78,.19-4.32,.18-8.64,.18-12.96,0-1.26-.24-2.52-.42-3.77Zm0,0c-.29-2.09-1.43-3.55-3.56-3.69-2.79-.19-5.62-.29-8.4-.04-2.48,.23-3.46,1.36-3.75,3.88-.34,3.02-.42,6.08-.62,9.18,.2,3.04,.29,6.13,.64,9.19,.28,2.41,1.36,3.45,3.76,3.74,2,.24,4.03,.26,6.05,.24,4.33-.03,5.94-1.48,6.13-5.78,.19-4.32,.18-8.64,.18-12.96,0-1.26-.24-2.52-.42-3.77Zm0,0c-.29-2.09-1.43-3.55-3.56-3.69-2.79-.19-5.62-.29-8.4-.04-2.48,.23-3.46,1.36-3.75,3.88-.34,3.02-.42,6.08-.62,9.18,.2,3.04,.29,6.13,.64,9.19,.28,2.41,1.36,3.45,3.76,3.74,2,.24,4.03,.26,6.05,.24,4.33-.03,5.94-1.48,6.13-5.78,.19-4.32,.18-8.64,.18-12.96,0-1.26-.24-2.52-.42-3.77Zm0,0c-.29-2.09-1.43-3.55-3.56-3.69-2.79-.19-5.62-.29-8.4-.04-2.48,.23-3.46,1.36-3.75,3.88-.34,3.02-.42,6.08-.62,9.18,.2,3.04,.29,6.13,.64,9.19,.28,2.41,1.36,3.45,3.76,3.74,2,.24,4.03,.26,6.05,.24,4.33-.03,5.94-1.48,6.13-5.78,.19-4.32,.18-8.64,.18-12.96,0-1.26-.24-2.52-.42-3.77Zm0,0c-.29-2.09-1.43-3.55-3.56-3.69-2.79-.19-5.62-.29-8.4-.04-2.48,.23-3.46,1.36-3.75,3.88-.34,3.02-.42,6.08-.62,9.18,.2,3.04,.29,6.13,.64,9.19,.28,2.41,1.36,3.45,3.76,3.74,2,.24,4.03,.26,6.05,.24,4.33-.03,5.94-1.48,6.13-5.78,.19-4.32,.18-8.64,.18-12.96,0-1.26-.24-2.52-.42-3.77Zm0,0c-.29-2.09-1.43-3.55-3.56-3.69-2.79-.19-5.62-.29-8.4-.04-2.48,.23-3.46,1.36-3.75,3.88-.34,3.02-.42,6.08-.62,9.18,.2,3.04,.29,6.13,.64,9.19,.28,2.41,1.36,3.45,3.76,3.74,2,.24,4.03,.26,6.05,.24,4.33-.03,5.94-1.48,6.13-5.78,.19-4.32,.18-8.64,.18-12.96,0-1.26-.24-2.52-.42-3.77ZM452.06,.42H230.37c-5.26,0-9.61,3.88-10.35,8.94-.08,.5-.11,1.01-.11,1.52v56.94c0,.52,.04,1.03,.11,1.52,.74,5.06,5.09,8.94,10.35,8.94h221.7c5.72,0,10.38-4.6,10.46-10.3,0-.05,0-.1,0-.16V10.86c-.01-5.77-4.7-10.44-10.46-10.44Zm-176.77,63.17c-4.29,0-8.58-.03-12.87,.02-.9,0-1.42-.26-1.91-1.03-3.68-5.75-7.4-11.46-11.12-17.19-.35-.53-.64-1.15-1.57-.66v18.81h-12.44V15.9h12.39v17.63c.95,.49,1.31-.01,1.7-.63,3.33-5.31,6.7-10.59,9.99-15.93,.56-.91,1.16-1.17,2.18-1.16,4.41,.05,8.81,.02,13.44,.02-.29,.49-.5,.85-.72,1.19-4.66,6.96-9.3,13.92-14.01,20.84-.61,.88-.53,1.42,.05,2.25,5.19,7.41,10.32,14.86,15.47,22.3,.22,.31,.41,.65,.71,1.12-.54,.03-.91,.06-1.29,.06Zm52.36-.07c-.38,.03-.76,.07-1.14,.07-5.48,0-10.96,0-16.44,.02-.83,0-1.24-.23-1.57-1.04-4.49-11.09-9.03-22.16-13.55-33.24-.15-.36-.32-.73-.66-1.07V63.53h-11.89V15.89c.36-.02,.74-.05,1.13-.05,5.44,0,10.88,.03,16.31-.02,.92-.01,1.28,.32,1.62,1.13,4.56,11.14,9.17,22.27,13.76,33.41,.09,.21,.18,.42,.28,.62,.06-.02,.13-.04,.19-.06V15.93h11.95V63.53Zm50.45-11.42c-1.11,7.19-4.56,10.59-11.82,11.62-6.1,.86-12.28,.97-18.37-.19-6.49-1.24-9.66-4.69-10.73-11.23-.37-2.26-.62-4.57-.64-6.85-.05-6.06-.43-12.15,.6-18.18,1.19-6.9,4.41-10.34,11.34-11.46,6.25-1.02,12.59-1.01,18.84,.07,6.3,1.09,9.71,4.59,10.74,11.21,.65,4.17,.7,8.44,1.02,12.61-.31,4.21-.36,8.36-.98,12.41Zm61.96,11.49h-6.3c-3.49,0-6.99-.02-10.48,.02-.83,0-1.23-.17-1.39-1.12-1.79-10.27-3.63-20.53-5.65-30.83-.23,1.07-.46,2.14-.65,3.22-1.69,9.2-3.39,18.4-5.05,27.61-.16,.88-.52,1.13-1.41,1.13-5.28-.04-10.56-.04-15.84,0-.92,0-1.21-.32-1.34-1.19-1.87-12.47-3.76-24.93-5.65-37.39-.46-3.02-.89-6.04-1.35-9.14h12.66c1.47,12.04,2.93,24.07,4.4,36.1,.07,0,.14,.02,.21,.03,2.41-12.03,4.82-24.06,7.24-36.13h14.09c2.2,11.97,4.41,23.97,6.61,35.96,.08,0,.16,.02,.25,.03,1.62-12,3.24-23.99,4.86-36.01h12.61c-2.61,15.89-5.2,31.72-7.83,47.72Zm-78.12-36.82c-2.79-.19-5.62-.29-8.4-.04-2.48,.23-3.46,1.36-3.75,3.88-.34,3.02-.42,6.08-.62,9.18,.2,3.04,.29,6.13,.64,9.19,.28,2.41,1.36,3.45,3.76,3.74,2,.24,4.03,.26,6.05,.24,4.33-.03,5.94-1.48,6.13-5.78,.19-4.32,.18-8.64,.18-12.96,0-1.26-.24-2.52-.42-3.77-.29-2.09-1.43-3.55-3.56-3.69Zm3.56,3.69c-.29-2.09-1.43-3.55-3.56-3.69-2.79-.19-5.62-.29-8.4-.04-2.48,.23-3.46,1.36-3.75,3.88-.34,3.02-.42,6.08-.62,9.18,.2,3.04,.29,6.13,.64,9.19,.28,2.41,1.36,3.45,3.76,3.74,2,.24,4.03,.26,6.05,.24,4.33-.03,5.94-1.48,6.13-5.78,.19-4.32,.18-8.64,.18-12.96,0-1.26-.24-2.52-.42-3.77Zm0,0c-.29-2.09-1.43-3.55-3.56-3.69-2.79-.19-5.62-.29-8.4-.04-2.48,.23-3.46,1.36-3.75,3.88-.34,3.02-.42,6.08-.62,9.18,.2,3.04,.29,6.13,.64,9.19,.28,2.41,1.36,3.45,3.76,3.74,2,.24,4.03,.26,6.05,.24,4.33-.03,5.94-1.48,6.13-5.78,.19-4.32,.18-8.64,.18-12.96,0-1.26-.24-2.52-.42-3.77Zm0,0c-.29-2.09-1.43-3.55-3.56-3.69-2.79-.19-5.62-.29-8.4-.04-2.48,.23-3.46,1.36-3.75,3.88-.34,3.02-.42,6.08-.62,9.18,.2,3.04,.29,6.13,.64,9.19,.28,2.41,1.36,3.45,3.76,3.74,2,.24,4.03,.26,6.05,.24,4.33-.03,5.94-1.48,6.13-5.78,.19-4.32,.18-8.64,.18-12.96,0-1.26-.24-2.52-.42-3.77Zm0,0c-.29-2.09-1.43-3.55-3.56-3.69-2.79-.19-5.62-.29-8.4-.04-2.48,.23-3.46,1.36-3.75,3.88-.34,3.02-.42,6.08-.62,9.18,.2,3.04,.29,6.13,.64,9.19,.28,2.41,1.36,3.45,3.76,3.74,2,.24,4.03,.26,6.05,.24,4.33-.03,5.94-1.48,6.13-5.78,.19-4.32,.18-8.64,.18-12.96,0-1.26-.24-2.52-.42-3.77Zm0,0c-.29-2.09-1.43-3.55-3.56-3.69-2.79-.19-5.62-.29-8.4-.04-2.48,.23-3.46,1.36-3.75,3.88-.34,3.02-.42,6.08-.62,9.18,.2,3.04,.29,6.13,.64,9.19,.28,2.41,1.36,3.45,3.76,3.74,2,.24,4.03,.26,6.05,.24,4.33-.03,5.94-1.48,6.13-5.78,.19-4.32,.18-8.64,.18-12.96,0-1.26-.24-2.52-.42-3.77Zm0,0c-.29-2.09-1.43-3.55-3.56-3.69-2.79-.19-5.62-.29-8.4-.04-2.48,.23-3.46,1.36-3.75,3.88-.34,3.02-.42,6.08-.62,9.18,.2,3.04,.29,6.13,.64,9.19,.28,2.41,1.36,3.45,3.76,3.74,2,.24,4.03,.26,6.05,.24,4.33-.03,5.94-1.48,6.13-5.78,.19-4.32,.18-8.64,.18-12.96,0-1.26-.24-2.52-.42-3.77Zm0,0c-.29-2.09-1.43-3.55-3.56-3.69-2.79-.19-5.62-.29-8.4-.04-2.48,.23-3.46,1.36-3.75,3.88-.34,3.02-.42,6.08-.62,9.18,.2,3.04,.29,6.13,.64,9.19,.28,2.41,1.36,3.45,3.76,3.74,2,.24,4.03,.26,6.05,.24,4.33-.03,5.94-1.48,6.13-5.78,.19-4.32,.18-8.64,.18-12.96,0-1.26-.24-2.52-.42-3.77Zm0,0c-.29-2.09-1.43-3.55-3.56-3.69-2.79-.19-5.62-.29-8.4-.04-2.48,.23-3.46,1.36-3.75,3.88-.34,3.02-.42,6.08-.62,9.18,.2,3.04,.29,6.13,.64,9.19,.28,2.41,1.36,3.45,3.76,3.74,2,.24,4.03,.26,6.05,.24,4.33-.03,5.94-1.48,6.13-5.78,.19-4.32,.18-8.64,.18-12.96,0-1.26-.24-2.52-.42-3.77Z"/>
  </g>
</svg>